<svg version="1.1" id="Layer_1" xmlns="http://www.w3.org/2000/svg" xmlns:xlink="http://www.w3.org/1999/xlink" x="0px" y="0px"
	 width="100%" viewBox="0 0 684 675" enable-background="new 0 0 684 675" xml:space="preserve">
<path fill="#01314C" opacity="1.000000" stroke="none" 
	d="
M1.000001,553.000000 
	C1.000000,410.976685 1.000000,268.953339 1.374525,126.410583 
	C2.167214,125.056198 2.695508,124.257835 2.986836,123.380753 
	C6.689151,112.234482 9.521381,100.710930 14.210418,89.999283 
	C23.638899,68.460854 37.594051,49.981770 55.724186,34.896919 
	C62.068863,29.617945 68.625198,24.395748 75.741013,20.282816 
	C90.027489,12.025257 105.416115,6.301598 121.630119,2.918426 
	C122.514984,2.733791 123.214310,1.659936 124.000000,1.000000 
	C269.356659,1.000000 414.713287,1.000000 560.588013,1.373043 
	C567.053711,3.537296 573.113953,5.023774 578.929810,7.171933 
	C605.578125,17.014818 629.144653,31.141256 648.003662,53.160255 
	C665.414612,73.488670 676.458008,96.416977 682.135254,122.290932 
	C682.577576,124.306450 684.021545,126.102142 685.000000,128.000000 
	C685.000000,269.689972 685.000000,411.379974 684.628296,553.585327 
	C683.612732,555.564514 682.669617,556.969849 682.371277,558.500916 
	C679.321960,574.151184 673.231201,588.689880 665.648560,602.554688 
	C652.472290,626.647217 633.617737,645.450745 609.104004,657.649475 
	C595.975952,664.182495 581.546326,668.092346 567.736694,673.272949 
	C566.053650,673.904297 564.573914,675.077759 563.000000,676.000000 
	C416.309998,676.000000 269.620026,676.000000 122.416832,675.630981 
	C121.075600,674.816772 120.289062,674.254517 119.413277,673.943848 
	C107.536194,669.731140 95.270096,666.381226 83.843697,661.183472 
	C63.947758,652.133057 47.651047,638.269287 33.648571,621.370117 
	C17.675728,602.092834 7.999141,580.147888 2.937593,555.883606 
	C2.718511,554.833374 1.664878,553.957214 1.000001,553.000000 
M114.440948,42.946991 
	C86.213188,53.850571 65.060562,72.503532 51.176426,99.583664 
	C43.257008,115.029991 40.163967,131.547714 39.418236,148.475571 
	C38.664841,165.577362 39.271233,182.738281 39.248993,199.873245 
	C39.209869,230.017899 39.149822,260.162537 39.090836,290.307159 
	C39.026333,323.270508 38.957558,356.233856 38.882519,389.197205 
	C38.792618,428.690887 38.929668,468.187164 38.489433,507.677002 
	C38.299534,524.711548 38.882660,541.584900 43.298058,558.084106 
	C51.847374,590.030701 70.678421,613.889404 100.463783,628.539429 
	C117.658585,636.996704 135.982391,640.908997 155.267548,640.813599 
	C198.392136,640.600281 241.518539,640.746887 284.644196,640.746887 
	C364.130829,640.746887 443.617493,640.742126 523.104126,640.759949 
	C527.427551,640.760925 531.757385,641.154602 536.073364,641.019226 
	C566.847412,640.054260 593.494202,628.827820 615.154724,607.125488 
	C636.410706,585.828430 646.625549,559.253479 647.603943,529.410950 
	C648.236328,510.124969 647.429932,490.794006 647.377197,471.482880 
	C647.245239,423.166718 647.111145,374.850433 647.097290,326.534149 
	C647.081116,270.207611 647.365906,213.880142 647.088135,157.555206 
	C647.037720,147.331177 645.870789,136.895798 643.573914,126.937500 
	C634.016785,85.502052 608.741028,57.600941 568.973328,42.776730 
	C551.984802,36.443920 534.160522,36.020069 516.371582,35.962566 
	C488.548126,35.872635 460.723541,36.221066 432.899384,36.230282 
	C403.740784,36.239937 374.582092,35.985092 345.423492,35.994034 
	C288.686676,36.011429 231.949875,36.127911 175.213058,36.212784 
	C154.964844,36.243073 134.564774,34.867111 114.440948,42.946991 
z"/>
<path fill="#000000" opacity="1.000000" stroke="none" 
	d="
M685.000000,127.531342 
	C684.021545,126.102142 682.577576,124.306450 682.135254,122.290932 
	C676.458008,96.416977 665.414612,73.488670 648.003662,53.160255 
	C629.144653,31.141256 605.578125,17.014818 578.929810,7.171933 
	C573.113953,5.023774 567.053711,3.537296 561.052979,1.373043 
	C602.261169,1.000000 643.522339,1.000000 685.000000,1.000000 
	C685.000000,43.020645 685.000000,85.041664 685.000000,127.531342 
z"/>
<path fill="#000000" opacity="1.000000" stroke="none" 
	d="
M123.531342,1.000000 
	C123.214310,1.659936 122.514984,2.733791 121.630119,2.918426 
	C105.416115,6.301598 90.027489,12.025257 75.741013,20.282816 
	C68.625198,24.395748 62.068863,29.617945 55.724186,34.896919 
	C37.594051,49.981770 23.638899,68.460854 14.210418,89.999283 
	C9.521381,100.710930 6.689151,112.234482 2.986836,123.380753 
	C2.695508,124.257835 2.167214,125.056198 1.374525,125.945572 
	C1.000000,84.406952 1.000000,42.813911 1.000000,1.000000 
	C41.687294,1.000000 82.374992,1.000000 123.531342,1.000000 
z"/>
<path fill="#000000" opacity="1.000000" stroke="none" 
	d="
M1.000001,553.468628 
	C1.664878,553.957214 2.718511,554.833374 2.937593,555.883606 
	C7.999141,580.147888 17.675728,602.092834 33.648571,621.370117 
	C47.651047,638.269287 63.947758,652.133057 83.843697,661.183472 
	C95.270096,666.381226 107.536194,669.731140 119.413277,673.943848 
	C120.289062,674.254517 121.075600,674.816772 121.951820,675.630981 
	C81.739098,676.000000 41.478203,676.000000 1.000000,676.000000 
	C1.000000,635.312683 1.000000,594.625000 1.000001,553.468628 
z"/>
<path fill="#000000" opacity="1.000000" stroke="none" 
	d="
M563.468628,676.000000 
	C564.573914,675.077759 566.053650,673.904297 567.736694,673.272949 
	C581.546326,668.092346 595.975952,664.182495 609.104004,657.649475 
	C633.617737,645.450745 652.472290,626.647217 665.648560,602.554688 
	C673.231201,588.689880 679.321960,574.151184 682.371277,558.500916 
	C682.669617,556.969849 683.612732,555.564514 684.628296,554.050415 
	C685.000000,594.593628 685.000000,635.187256 685.000000,676.000000 
	C644.646057,676.000000 604.291687,676.000000 563.468628,676.000000 
z"/>
<path fill="#F9EDCB" opacity="1.000000" stroke="none" 
	d="
M114.784744,42.761566 
	C134.564774,34.867111 154.964844,36.243073 175.213058,36.212784 
	C231.949875,36.127911 288.686676,36.011429 345.423492,35.994034 
	C374.582092,35.985092 403.740784,36.239937 432.899384,36.230282 
	C460.723541,36.221066 488.548126,35.872635 516.371582,35.962566 
	C534.160522,36.020069 551.984802,36.443920 568.973328,42.776730 
	C608.741028,57.600941 634.016785,85.502052 643.573914,126.937500 
	C645.870789,136.895798 647.037720,147.331177 647.088135,157.555206 
	C647.365906,213.880142 647.081116,270.207611 647.097290,326.534149 
	C647.111145,374.850433 647.245239,423.166718 647.377197,471.482880 
	C647.429932,490.794006 648.236328,510.124969 647.603943,529.410950 
	C646.625549,559.253479 636.410706,585.828430 615.154724,607.125488 
	C593.494202,628.827820 566.847412,640.054260 536.073364,641.019226 
	C531.757385,641.154602 527.427551,640.760925 523.104126,640.759949 
	C443.617493,640.742126 364.130829,640.746887 284.644196,640.746887 
	C241.518539,640.746887 198.392136,640.600281 155.267548,640.813599 
	C135.982391,640.908997 117.658585,636.996704 100.463783,628.539429 
	C70.678421,613.889404 51.847374,590.030701 43.298058,558.084106 
	C38.882660,541.584900 38.299534,524.711548 38.489433,507.677002 
	C38.929668,468.187164 38.792618,428.690887 38.882519,389.197205 
	C38.957558,356.233856 39.026333,323.270508 39.090836,290.307159 
	C39.149822,260.162537 39.209869,230.017899 39.248993,199.873245 
	C39.271233,182.738281 38.664841,165.577362 39.418236,148.475571 
	C40.163967,131.547714 43.257008,115.029991 51.176426,99.583664 
	C65.060562,72.503532 86.213188,53.850571 114.784744,42.761566 
M419.278442,518.530090 
	C414.899933,509.951172 409.513824,503.004028 398.597961,502.484161 
	C389.877319,502.068817 390.177490,501.554657 387.675079,493.015503 
	C381.151123,470.753052 374.403198,448.555786 367.663177,426.357300 
	C354.315369,382.395813 340.818939,338.479309 327.561584,294.490692 
	C316.326508,257.212067 305.361420,219.852158 294.235077,182.540680 
	C290.448608,169.843018 283.191315,159.874893 270.853485,154.310623 
	C263.371704,150.936386 255.591919,150.295090 248.361511,154.814560 
	C236.282913,162.364471 227.408859,172.610840 223.595062,186.654388 
	C221.026215,196.113602 218.785995,205.665329 216.068100,215.080215 
	C205.243683,252.576355 194.265198,290.027954 183.390808,327.509705 
	C173.808807,360.536865 164.235229,393.566681 154.760849,426.624817 
	C148.036301,450.088226 141.359085,473.567047 134.961716,497.120758 
	C133.737259,501.628967 131.939301,503.082367 127.186508,502.862549 
	C116.683365,502.376831 106.906395,509.852783 103.614471,519.846252 
	C101.872246,525.135193 102.447449,529.934692 105.855957,534.403076 
	C111.937325,542.375427 119.472031,547.184631 129.974106,546.963196 
	C149.919754,546.542603 169.873474,546.323242 189.823074,546.368103 
	C197.004623,546.384277 203.097961,544.334595 208.724747,540.011414 
	C220.433105,531.015564 219.443695,512.600769 206.307541,505.748444 
	C202.167725,503.588959 196.893143,503.415436 192.078125,502.803864 
	C188.645752,502.367889 185.113388,502.719238 180.877365,502.719238 
	C190.157089,469.928009 199.000961,438.676880 207.535934,408.517334 
	C242.636993,409.076721 278.162079,409.642883 313.955902,410.213318 
	C323.362640,440.575989 332.776611,470.962036 342.305817,501.719971 
	C336.554810,501.719971 331.607452,501.646118 326.663086,501.736450 
	C318.261444,501.889893 309.289124,508.337830 307.233215,516.358887 
	C303.060883,532.637268 311.322937,545.060364 329.087860,546.120850 
	C346.858704,547.181641 364.712952,546.762390 382.519043,547.345032 
	C394.259460,547.729248 404.900421,545.638123 413.580627,536.992798 
	C418.579102,532.014404 420.553558,526.240356 419.278442,518.530090 
M437.027954,505.342957 
	C420.489105,515.951355 424.175812,536.832397 438.747498,543.234985 
	C443.469818,545.309937 448.917328,546.632629 454.056580,546.708374 
	C479.351685,547.081055 504.667542,546.443237 529.950012,547.126709 
	C544.730957,547.526306 554.797607,533.107056 553.911499,521.076355 
	C553.150269,510.742310 546.871277,503.185455 538.335938,502.783478 
	C531.520996,502.462524 524.690613,502.045319 517.880249,502.212219 
	C513.817871,502.311768 512.713440,500.800934 512.727417,497.041504 
	C512.754700,489.720428 512.271790,482.398193 512.266235,475.076202 
	C512.222534,417.756561 512.220947,360.436920 512.255493,303.117249 
	C512.265137,287.126526 512.785583,271.126007 512.331177,255.151047 
	C512.189514,250.171570 513.840210,248.538376 518.061707,247.508011 
	C527.780212,245.135941 535.530945,239.471512 541.704712,231.841766 
	C546.575439,225.822342 551.228333,219.545975 555.256775,212.943680 
	C562.235046,201.506943 567.491272,189.366852 567.246643,175.533524 
	C566.847595,152.976196 557.492310,134.865524 540.044495,120.807205 
	C538.517578,119.576912 536.671631,118.685936 534.871521,117.860733 
	C525.278198,113.463081 519.173035,117.175240 519.109375,127.671036 
	C519.003235,145.153656 518.852356,162.644348 519.272888,180.118347 
	C519.488708,189.082077 515.150513,194.616119 508.319183,199.376297 
	C499.917511,205.230652 490.496246,204.811432 481.025726,204.773087 
	C464.991791,204.708160 454.637085,192.680496 455.370789,176.729294 
	C456.126373,160.302505 455.981354,143.784927 455.202759,127.355766 
	C454.747375,117.746811 446.106171,114.211830 437.835327,119.259659 
	C427.732574,125.425529 420.191010,134.098358 415.390320,144.716003 
	C404.151306,169.573441 405.597351,193.938965 419.130371,217.744232 
	C426.878296,231.373230 439.373230,239.417145 452.061584,247.394867 
	C463.671234,247.617966 463.110077,255.765335 463.128662,263.931366 
	C463.248383,316.557983 463.575684,369.184204 463.678680,421.810852 
	C463.728241,447.128143 463.442383,472.446106 463.288696,497.763672 
	C463.279114,499.342682 463.096649,500.920685 462.967834,502.913116 
	C458.297974,502.707581 454.135712,502.113190 450.053162,502.459320 
	C445.887390,502.812561 441.799957,504.089783 437.027954,505.342957 
z"/>
<path fill="#01314C" opacity="1.000000" stroke="none" 
	d="
M419.291382,518.929565 
	C420.553558,526.240356 418.579102,532.014404 413.580627,536.992798 
	C404.900421,545.638123 394.259460,547.729248 382.519043,547.345032 
	C364.712952,546.762390 346.858704,547.181641 329.087860,546.120850 
	C311.322937,545.060364 303.060883,532.637268 307.233215,516.358887 
	C309.289124,508.337830 318.261444,501.889893 326.663086,501.736450 
	C331.607452,501.646118 336.554810,501.719971 342.305817,501.719971 
	C332.776611,470.962036 323.362640,440.575989 313.955902,410.213318 
	C278.162079,409.642883 242.636993,409.076721 207.535934,408.517334 
	C199.000961,438.676880 190.157089,469.928009 180.877365,502.719238 
	C185.113388,502.719238 188.645752,502.367889 192.078125,502.803864 
	C196.893143,503.415436 202.167725,503.588959 206.307541,505.748444 
	C219.443695,512.600769 220.433105,531.015564 208.724747,540.011414 
	C203.097961,544.334595 197.004623,546.384277 189.823074,546.368103 
	C169.873474,546.323242 149.919754,546.542603 129.974106,546.963196 
	C119.472031,547.184631 111.937325,542.375427 105.855957,534.403076 
	C102.447449,529.934692 101.872246,525.135193 103.614471,519.846252 
	C106.906395,509.852783 116.683365,502.376831 127.186508,502.862549 
	C131.939301,503.082367 133.737259,501.628967 134.961716,497.120758 
	C141.359085,473.567047 148.036301,450.088226 154.760849,426.624817 
	C164.235229,393.566681 173.808807,360.536865 183.390808,327.509705 
	C194.265198,290.027954 205.243683,252.576355 216.068100,215.080215 
	C218.785995,205.665329 221.026215,196.113602 223.595062,186.654388 
	C227.408859,172.610840 236.282913,162.364471 248.361511,154.814560 
	C255.591919,150.295090 263.371704,150.936386 270.853485,154.310623 
	C283.191315,159.874893 290.448608,169.843018 294.235077,182.540680 
	C305.361420,219.852158 316.326508,257.212067 327.561584,294.490692 
	C340.818939,338.479309 354.315369,382.395813 367.663177,426.357300 
	C374.403198,448.555786 381.151123,470.753052 387.675079,493.015503 
	C390.177490,501.554657 389.877319,502.068817 398.597961,502.484161 
	C409.513824,503.004028 414.899933,509.951172 419.291382,518.929565 
M287.092041,321.445862 
	C277.970520,291.371399 268.848999,261.296936 259.584229,230.750107 
	C246.439926,275.206909 233.458664,319.112305 220.355957,363.428467 
	C247.640747,363.428467 273.538727,363.428467 299.870667,363.428467 
	C295.596832,349.430359 291.443146,335.825775 287.092041,321.445862 
z"/>
<path fill="#01314D" opacity="1.000000" stroke="none" 
	d="
M437.353088,505.152710 
	C441.799957,504.089783 445.887390,502.812561 450.053162,502.459320 
	C454.135712,502.113190 458.297974,502.707581 462.967834,502.913116 
	C463.096649,500.920685 463.279114,499.342682 463.288696,497.763672 
	C463.442383,472.446106 463.728241,447.128143 463.678680,421.810852 
	C463.575684,369.184204 463.248383,316.557983 463.128662,263.931366 
	C463.110077,255.765335 463.671234,247.617966 452.061584,247.394867 
	C439.373230,239.417145 426.878296,231.373230 419.130371,217.744232 
	C405.597351,193.938965 404.151306,169.573441 415.390320,144.716003 
	C420.191010,134.098358 427.732574,125.425529 437.835327,119.259659 
	C446.106171,114.211830 454.747375,117.746811 455.202759,127.355766 
	C455.981354,143.784927 456.126373,160.302505 455.370789,176.729294 
	C454.637085,192.680496 464.991791,204.708160 481.025726,204.773087 
	C490.496246,204.811432 499.917511,205.230652 508.319183,199.376297 
	C515.150513,194.616119 519.488708,189.082077 519.272888,180.118347 
	C518.852356,162.644348 519.003235,145.153656 519.109375,127.671036 
	C519.173035,117.175240 525.278198,113.463081 534.871521,117.860733 
	C536.671631,118.685936 538.517578,119.576912 540.044495,120.807205 
	C557.492310,134.865524 566.847595,152.976196 567.246643,175.533524 
	C567.491272,189.366852 562.235046,201.506943 555.256775,212.943680 
	C551.228333,219.545975 546.575439,225.822342 541.704712,231.841766 
	C535.530945,239.471512 527.780212,245.135941 518.061707,247.508011 
	C513.840210,248.538376 512.189514,250.171570 512.331177,255.151047 
	C512.785583,271.126007 512.265137,287.126526 512.255493,303.117249 
	C512.220947,360.436920 512.222534,417.756561 512.266235,475.076202 
	C512.271790,482.398193 512.754700,489.720428 512.727417,497.041504 
	C512.713440,500.800934 513.817871,502.311768 517.880249,502.212219 
	C524.690613,502.045319 531.520996,502.462524 538.335938,502.783478 
	C546.871277,503.185455 553.150269,510.742310 553.911499,521.076355 
	C554.797607,533.107056 544.730957,547.526306 529.950012,547.126709 
	C504.667542,546.443237 479.351685,547.081055 454.056580,546.708374 
	C448.917328,546.632629 443.469818,545.309937 438.747498,543.234985 
	C424.175812,536.832397 420.489105,515.951355 437.353088,505.152710 
z"/>
<path fill="#F6EBC9" opacity="1.000000" stroke="none" 
	d="
M287.190735,321.833527 
	C291.443146,335.825775 295.596832,349.430359 299.870667,363.428467 
	C273.538727,363.428467 247.640747,363.428467 220.355957,363.428467 
	C233.458664,319.112305 246.439926,275.206909 259.584229,230.750107 
	C268.848999,261.296936 277.970520,291.371399 287.190735,321.833527 
z"/>
</svg>